<svg t="1572529792854" class="icon" viewBox="0 0 1241 1024" version="1.1" xmlns="http://www.w3.org/2000/svg" p-id="9428" width="48" height="48"><path d="M878.266182 890.965333a40.308364 40.176485 90 1 0 80.35297 0 40.308364 40.176485 90 1 0-80.35297 0Z" fill="#ff6b6b" fill-opacity=".6" p-id="9429"></path><path d="M0 554.596848a26.406788 26.321455 90 1 0 52.642909 0 26.406788 26.321455 90 1 0-52.642909 0Z" fill="#ff6b6b" fill-opacity=".6" p-id="9430"></path><path d="M1171.952485 423.936a18.067394 18.005333 90 1 0 36.010667 0 18.067394 18.005333 90 1 0-36.010667 0Z" fill="#ff6b6b" fill-opacity=".6" p-id="9431"></path><path d="M997.399273 1003.55103a19.456 19.393939 90 1 0 38.787879 0 19.456 19.393939 90 1 0-38.787879 0Z" fill="#ff6b6b" fill-opacity=".6" p-id="9432"></path><path d="M1188.569212 332.202667a26.406788 26.321455 90 1 0 52.642909 0 26.406788 26.321455 90 1 0-52.642909 0Z" fill="#ff6b6b" fill-opacity=".6" p-id="9433"></path><path d="M52.635152 478.145939a13.901576 13.85503 90 1 0 27.71006 0 13.901576 13.85503 90 1 0-27.71006 0Z" fill="#ff6b6b" fill-opacity=".6" p-id="9434"></path><path d="M166.229333 850.65697a11.116606 11.085576 90 1 0 22.171152 0 11.116606 11.085576 90 1 0-22.171152 0Z" fill="#ff6b6b" fill-opacity=".6" p-id="9435"></path><path d="M415.588848 15.290182a15.290182 15.235879 90 1 0 30.471758 0 15.290182 15.235879 90 1 0-30.471758 0Z" fill="#ff6b6b" fill-opacity=".6" p-id="9436"></path><path d="M845.715394 844.163879l-132.584727 133.042424c-54.442667 54.613333-142.855758 54.768485-197.476849 0.325818a139.954424 139.954424 0 0 1-0.333576-0.333576l-93.796848-94.114909H256.356848a23.629576 23.629576 0 1 1 0-47.259151h118.070304l-44.334546-44.474182h-195.646061a23.629576 23.629576 0 0 1 0-47.259151H282.996364L161.962667 622.646303c-54.30303-54.489212-54.30303-142.646303 0-197.143273l100.848485-101.18206H397.498182a23.629576 23.629576 0 1 0 0-47.259152H309.907394L509.44 76.846545c54.434909-54.613333 142.848-54.768485 197.469091-0.333575l0.333576 0.333575 191.224242 191.875879h202.744243a23.629576 23.629576 0 1 1 0 47.259152h-155.640243L1060.615758 431.398788c54.310788 54.49697 54.310788 142.654061 0 197.143273l-167.796364 168.362666h-112.818424a23.629576 23.629576 0 0 0 0 47.259152h65.722182z m50.641454-678.299152h321.225697a23.629576 23.629576 0 1 1 0 47.259152h-321.225697a23.629576 23.629576 0 1 1 0-47.259152z" fill="#ff6b6b" opacity=".6" p-id="9437"></path><path d="M672.271515 707.61503a127.301818 127.301818 0 0 0 19.161212 25.274182H441.274182c-27.702303 0-50.369939-22.745212-50.36994-50.548364V404.355879c0-27.803152 22.667636-50.548364 50.36994-50.548364h377.801697c27.710061 0 50.377697 22.745212 50.377697 50.548364v149.907394a125.959758 125.959758 0 0 0-37.779394-25.6V416.985212c0-13.893818-11.333818-25.266424-25.188849-25.266424H453.864727c-13.847273 0-25.181091 11.372606-25.181091 25.266424V613.546667l77.381819-117.069576a13.738667 13.738667 0 0 1 22.458181-0.659394l55.358061 74.061576c4.654545 6.229333 13.529212 7.369697 19.595636 2.482424l44.419879-35.638303a13.692121 13.692121 0 0 1 15.670303-1.062788l15.36 9.24703c7.431758 4.476121 9.029818 14.398061 3.646061 21.209212a125.866667 125.866667 0 0 0-27.205818 78.328243c-0.007758 22.194424 5.849212 43.993212 16.973575 63.177697h-0.077575 0.015515z" fill="#ff6b6b" opacity=".7" p-id="9438"></path><path d="M781.296485 530.711273c30.060606 0 58.887758 11.985455 80.143515 33.31103a113.92 113.92 0 0 1 33.202424 80.41503c0 62.805333-50.750061 113.726061-113.338182 113.726061-62.603636 0-113.345939-50.920727-113.345939-113.726061 0-30.161455 11.946667-59.089455 33.202424-80.41503a113.144242 113.144242 0 0 1 80.135758-33.31103z m12.598303 132.677818v-75.814788c0-4.514909-2.404848-8.688485-6.299152-10.938182a12.559515 12.559515 0 0 0-12.590545 0 12.644848 12.644848 0 0 0-6.299152 10.938182v75.814788c0 4.514909 2.404848 8.688485 6.299152 10.938182a12.559515 12.559515 0 0 0 12.590545 0 12.644848 12.644848 0 0 0 6.299152-10.938182z m-12.598303 50.548364c6.958545 0 12.598303-5.66303 12.598303-12.644849 0-6.974061-5.639758-12.629333-12.598303-12.629333-6.950788 0-12.590545 5.66303-12.590546 12.637091 0 6.981818 5.639758 12.637091 12.590546 12.637091z" fill="#ff6b6b" opacity=".7" p-id="9439"></path></svg>