<?xml version="1.0" encoding="utf-8"?>
<!-- Generator: Adobe Illustrator 23.0.0, SVG Export Plug-In . SVG Version: 6.00 Build 0)  -->
<svg version="1.1" id="图层_1" xmlns="http://www.w3.org/2000/svg" xmlns:xlink="http://www.w3.org/1999/xlink" x="0px" y="0px"
	 viewBox="0 0 48 48" style="enable-background:new 0 0 48 48;" xml:space="preserve">
<style type="text/css">
	.st0{fill:#FF6B6B;}
</style>
<path class="st0" d="M24,36.4c-1.9,0-3.4,1.5-3.4,3.4c0,1.9,1.5,3.4,3.4,3.4c1.9,0,3.4-1.5,3.4-3.4C27.4,37.9,25.9,36.4,24,36.4z
	 M13,32.1c-2.1,0-3.8,1.7-3.8,3.8s1.7,3.8,3.8,3.8c2.1,0,3.8-1.7,3.8-3.8S15.1,32.1,13,32.1z M7.2,20.6c-2.4,0-4.3,2-4.3,4.3
	c0,2.4,1.9,4.3,4.3,4.3c2.4,0,4.3-1.9,4.3-4.3C11.5,22.6,9.6,20.6,7.2,20.6z M34.5,32.4c-1.7,0-3,1.4-3,3s1.4,3,3,3s3-1.4,3-3
	S36.2,32.4,34.5,32.4z M39.1,22.1c-1.4,0-2.6,1.2-2.6,2.6s1.2,2.6,2.6,2.6c1.4,0,2.6-1.2,2.6-2.6S40.5,22.1,39.1,22.1z"/>
<path class="st0" d="M37,14.2c0,1.2-1,2.2-2.2,2.2s-2.2-1-2.2-2.2c0-1.2,1-2.2,2.2-2.2S37,13,37,14.2z"/>
<ellipse transform="matrix(0.9239 -0.3827 0.3827 0.9239 -0.5802 9.6632)" class="st0" cx="24" cy="6.3" rx="5.2" ry="5.2"/>
<path class="st0" d="M15.6,12.8c0,2.6-2.1,4.7-4.7,4.7c-2.6,0-4.7-2.1-4.7-4.7c0-2.6,2.1-4.7,4.7-4.7C13.5,8.1,15.6,10.2,15.6,12.8z
	"/>
</svg>
