<?xml version="1.0" encoding="utf-8"?>
<!-- Generator: Adobe Illustrator 23.0.0, SVG Export Plug-In . SVG Version: 6.00 Build 0)  -->
<svg version="1.1" id="图层_1" xmlns="http://www.w3.org/2000/svg" xmlns:xlink="http://www.w3.org/1999/xlink" x="0px" y="0px"
	 viewBox="0 0 128 128" style="enable-background:new 0 0 128 128;" xml:space="preserve">
<style type="text/css">
	.st0{fill:#D9DDE2;}
	.st1{fill:#FFFFFF;}
</style>
<path class="st0" d="M64,128L64,128C28.7,128,0,99.3,0,64v0C0,28.7,28.7,0,64,0h0c35.3,0,64,28.7,64,64v0C128,99.3,99.3,128,64,128z
	"/>
<path class="st1" d="M81.9,24.3c2.4-2.3,2.5-6.1,0.3-8.4c-2.2-2.4-6.1-2.5-8.4-0.3c-0.1,0.1-0.2,0.2-0.3,0.3L29.5,59.7
	c-2.4,2.4-2.4,6.2,0,8.4l43.9,43.9c2.3,2.4,6.1,2.5,8.4,0.3c2.4-2.3,2.5-6.1,0.3-8.4c-0.1-0.1-0.2-0.2-0.3-0.3L42.2,63.9L81.9,24.3
	L81.9,24.3z"/>
</svg>
