<?xml version="1.0" encoding="utf-8"?>
<!-- Generator: Adobe Illustrator 23.0.0, SVG Export Plug-In . SVG Version: 6.00 Build 0)  -->
<svg version="1.1" id="图层_1" xmlns="http://www.w3.org/2000/svg" xmlns:xlink="http://www.w3.org/1999/xlink" x="0px" y="0px"
	 viewBox="0 0 48 48" style="enable-background:new 0 0 48 48;" xml:space="preserve">
<style type="text/css">
	.st0{fill:#FF6B6B;}
</style>
<title>loading2</title>
<path class="st0" d="M24,36c-1.9,0-3.4,1.5-3.3,3.4c0,1.9,1.5,3.4,3.4,3.3c1.9,0,3.4-1.5,3.3-3.4C27.3,37.5,25.8,36,24,36z
	 M13.1,32.2c-2.1,0-3.8,1.7-3.8,3.8s1.7,3.8,3.8,3.8s3.8-1.7,3.8-3.8l0,0C16.9,33.9,15.2,32.2,13.1,32.2z M7.6,19.7
	c-2.4,0-4.4,1.9-4.4,4.3s1.9,4.4,4.3,4.4c2.4,0,4.3-1.9,4.4-4.3C11.9,21.6,10,19.7,7.6,19.7C7.6,19.7,7.6,19.7,7.6,19.7z M33.5,32.5
	c-1.7,0-3,1.3-3,3s1.3,3,3,3s3-1.3,3-3S35.2,32.5,33.5,32.5z M38.6,21.4c-1.4,0-2.6,1.2-2.6,2.6s1.2,2.6,2.6,2.6
	c1.4,0,2.6-1.2,2.6-2.6c0,0,0,0,0,0C41.2,22.6,40.1,21.4,38.6,21.4z"/>
<path class="st0" d="M37.5,15.4c0,1.2-1,2.2-2.2,2.2c-1.2,0-2.2-1-2.2-2.2s1-2.2,2.2-2.2c0,0,0,0,0,0C36.6,13.3,37.5,14.3,37.5,15.4
	z"/>
<circle class="st0" cx="24" cy="6.8" r="5.2"/>
<path class="st0" d="M15.6,13.3c0,2.6-2.1,4.7-4.7,4.7s-4.7-2.1-4.7-4.7s2.1-4.7,4.7-4.7l0,0C13.5,8.6,15.6,10.7,15.6,13.3z"/>
</svg>
